<mxfile host="app.diagrams.net" modified="2023-11-16T03:12:31.173Z" agent="Mozilla/5.0 (Macintosh; Intel Mac OS X 10_15_7) AppleWebKit/537.36 (KHTML, like Gecko) Chrome/119.0.0.0 Safari/537.36" etag="ln8aZ6-i0ScJxWsjtu8Z" version="21.6.8" type="device">
  <diagram id="C5RBs43oDa-KdzZeNtuy" name="Page-1">
    <mxGraphModel dx="1145" dy="666" grid="1" gridSize="10" guides="1" tooltips="1" connect="1" arrows="1" fold="1" page="1" pageScale="1" pageWidth="1169" pageHeight="827" math="0" shadow="0">
      <root>
        <mxCell id="WIyWlLk6GJQsqaUBKTNV-0" />
        <mxCell id="WIyWlLk6GJQsqaUBKTNV-1" parent="WIyWlLk6GJQsqaUBKTNV-0" />
        <mxCell id="kqgtjq5fHzS0ovIfPqEz-0" value="«interface»&lt;br&gt;MyProtoOrBuilder" style="html=1;whiteSpace=wrap;" vertex="1" parent="WIyWlLk6GJQsqaUBKTNV-1">
          <mxGeometry x="479" y="600" width="161" height="40" as="geometry" />
        </mxCell>
        <mxCell id="kqgtjq5fHzS0ovIfPqEz-9" value="MyProto" style="html=1;whiteSpace=wrap;" vertex="1" parent="WIyWlLk6GJQsqaUBKTNV-1">
          <mxGeometry x="80" y="600" width="120" height="40" as="geometry" />
        </mxCell>
        <mxCell id="kqgtjq5fHzS0ovIfPqEz-10" value="MyProto.Builder" style="html=1;whiteSpace=wrap;" vertex="1" parent="WIyWlLk6GJQsqaUBKTNV-1">
          <mxGeometry x="920" y="600" width="160" height="40" as="geometry" />
        </mxCell>
        <mxCell id="kqgtjq5fHzS0ovIfPqEz-11" value="GeneratedMessage" style="html=1;whiteSpace=wrap;" vertex="1" parent="WIyWlLk6GJQsqaUBKTNV-1">
          <mxGeometry x="80" y="480" width="120" height="40" as="geometry" />
        </mxCell>
        <mxCell id="kqgtjq5fHzS0ovIfPqEz-12" value="AbstractMessage" style="html=1;whiteSpace=wrap;" vertex="1" parent="WIyWlLk6GJQsqaUBKTNV-1">
          <mxGeometry x="80" y="360" width="120" height="40" as="geometry" />
        </mxCell>
        <mxCell id="kqgtjq5fHzS0ovIfPqEz-13" value="AbstractMessageLite" style="html=1;whiteSpace=wrap;" vertex="1" parent="WIyWlLk6GJQsqaUBKTNV-1">
          <mxGeometry x="80" y="240" width="120" height="40" as="geometry" />
        </mxCell>
        <mxCell id="kqgtjq5fHzS0ovIfPqEz-14" value="" style="endArrow=block;endSize=16;endFill=0;html=1;rounded=0;" edge="1" parent="WIyWlLk6GJQsqaUBKTNV-1" source="kqgtjq5fHzS0ovIfPqEz-9" target="kqgtjq5fHzS0ovIfPqEz-11">
          <mxGeometry width="160" relative="1" as="geometry">
            <mxPoint x="180" y="690" as="sourcePoint" />
            <mxPoint x="340" y="690" as="targetPoint" />
          </mxGeometry>
        </mxCell>
        <mxCell id="kqgtjq5fHzS0ovIfPqEz-15" value="" style="endArrow=block;endSize=16;endFill=0;html=1;rounded=0;" edge="1" parent="WIyWlLk6GJQsqaUBKTNV-1" source="kqgtjq5fHzS0ovIfPqEz-11" target="kqgtjq5fHzS0ovIfPqEz-12">
          <mxGeometry width="160" relative="1" as="geometry">
            <mxPoint x="139.5" y="480" as="sourcePoint" />
            <mxPoint x="139.5" y="400" as="targetPoint" />
          </mxGeometry>
        </mxCell>
        <mxCell id="kqgtjq5fHzS0ovIfPqEz-16" value="" style="endArrow=block;endSize=16;endFill=0;html=1;rounded=0;" edge="1" parent="WIyWlLk6GJQsqaUBKTNV-1" source="kqgtjq5fHzS0ovIfPqEz-12" target="kqgtjq5fHzS0ovIfPqEz-13">
          <mxGeometry width="160" relative="1" as="geometry">
            <mxPoint x="160" y="620" as="sourcePoint" />
            <mxPoint x="160" y="540" as="targetPoint" />
          </mxGeometry>
        </mxCell>
        <mxCell id="kqgtjq5fHzS0ovIfPqEz-17" value="«interface»&lt;br&gt;Message" style="html=1;whiteSpace=wrap;" vertex="1" parent="WIyWlLk6GJQsqaUBKTNV-1">
          <mxGeometry x="280" y="360" width="121" height="40" as="geometry" />
        </mxCell>
        <mxCell id="kqgtjq5fHzS0ovIfPqEz-18" value="«interface»&lt;br&gt;MessageLite" style="html=1;whiteSpace=wrap;" vertex="1" parent="WIyWlLk6GJQsqaUBKTNV-1">
          <mxGeometry x="280" y="240" width="121" height="40" as="geometry" />
        </mxCell>
        <mxCell id="kqgtjq5fHzS0ovIfPqEz-19" value="«interface»&lt;br&gt;MessageLiteOrBuilder" style="html=1;whiteSpace=wrap;" vertex="1" parent="WIyWlLk6GJQsqaUBKTNV-1">
          <mxGeometry x="479" y="240" width="161" height="40" as="geometry" />
        </mxCell>
        <mxCell id="kqgtjq5fHzS0ovIfPqEz-20" value="«interface»&lt;br&gt;MessageOrBuilder" style="html=1;whiteSpace=wrap;" vertex="1" parent="WIyWlLk6GJQsqaUBKTNV-1">
          <mxGeometry x="479" y="360" width="161" height="40" as="geometry" />
        </mxCell>
        <mxCell id="kqgtjq5fHzS0ovIfPqEz-21" value="«interface»&lt;br&gt;Message.Builder" style="html=1;whiteSpace=wrap;" vertex="1" parent="WIyWlLk6GJQsqaUBKTNV-1">
          <mxGeometry x="720" y="360" width="120" height="40" as="geometry" />
        </mxCell>
        <mxCell id="kqgtjq5fHzS0ovIfPqEz-22" value="«interface»&lt;br&gt;MessageLite.Builder" style="html=1;whiteSpace=wrap;" vertex="1" parent="WIyWlLk6GJQsqaUBKTNV-1">
          <mxGeometry x="720" y="240" width="120" height="40" as="geometry" />
        </mxCell>
        <mxCell id="kqgtjq5fHzS0ovIfPqEz-23" value="AbstractMessage.Builder" style="html=1;whiteSpace=wrap;" vertex="1" parent="WIyWlLk6GJQsqaUBKTNV-1">
          <mxGeometry x="920" y="360" width="160" height="40" as="geometry" />
        </mxCell>
        <mxCell id="kqgtjq5fHzS0ovIfPqEz-24" value="GeneratedMessage.Builder" style="html=1;whiteSpace=wrap;" vertex="1" parent="WIyWlLk6GJQsqaUBKTNV-1">
          <mxGeometry x="920" y="480" width="160" height="40" as="geometry" />
        </mxCell>
        <mxCell id="kqgtjq5fHzS0ovIfPqEz-25" value="AbstractMessageLite.Builder" style="html=1;whiteSpace=wrap;" vertex="1" parent="WIyWlLk6GJQsqaUBKTNV-1">
          <mxGeometry x="920" y="240" width="160" height="40" as="geometry" />
        </mxCell>
        <mxCell id="kqgtjq5fHzS0ovIfPqEz-26" value="" style="endArrow=block;endSize=16;endFill=0;html=1;rounded=0;" edge="1" parent="WIyWlLk6GJQsqaUBKTNV-1" source="kqgtjq5fHzS0ovIfPqEz-10" target="kqgtjq5fHzS0ovIfPqEz-24">
          <mxGeometry width="160" relative="1" as="geometry">
            <mxPoint x="1020" y="610" as="sourcePoint" />
            <mxPoint x="1020" y="530" as="targetPoint" />
          </mxGeometry>
        </mxCell>
        <mxCell id="kqgtjq5fHzS0ovIfPqEz-27" value="" style="endArrow=block;endSize=16;endFill=0;html=1;rounded=0;" edge="1" parent="WIyWlLk6GJQsqaUBKTNV-1" source="kqgtjq5fHzS0ovIfPqEz-24" target="kqgtjq5fHzS0ovIfPqEz-23">
          <mxGeometry width="160" relative="1" as="geometry">
            <mxPoint x="1010" y="610" as="sourcePoint" />
            <mxPoint x="1010" y="530" as="targetPoint" />
          </mxGeometry>
        </mxCell>
        <mxCell id="kqgtjq5fHzS0ovIfPqEz-28" value="" style="endArrow=block;endSize=16;endFill=0;html=1;rounded=0;" edge="1" parent="WIyWlLk6GJQsqaUBKTNV-1" source="kqgtjq5fHzS0ovIfPqEz-23" target="kqgtjq5fHzS0ovIfPqEz-25">
          <mxGeometry width="160" relative="1" as="geometry">
            <mxPoint x="1000" y="370" as="sourcePoint" />
            <mxPoint x="1010" y="410" as="targetPoint" />
          </mxGeometry>
        </mxCell>
        <mxCell id="kqgtjq5fHzS0ovIfPqEz-29" value="" style="endArrow=block;dashed=1;endFill=0;endSize=12;html=1;rounded=0;" edge="1" parent="WIyWlLk6GJQsqaUBKTNV-1" source="kqgtjq5fHzS0ovIfPqEz-9" target="kqgtjq5fHzS0ovIfPqEz-0">
          <mxGeometry width="160" relative="1" as="geometry">
            <mxPoint x="250" y="620" as="sourcePoint" />
            <mxPoint x="410" y="620" as="targetPoint" />
          </mxGeometry>
        </mxCell>
        <mxCell id="kqgtjq5fHzS0ovIfPqEz-30" value="" style="endArrow=block;dashed=1;endFill=0;endSize=12;html=1;rounded=0;" edge="1" parent="WIyWlLk6GJQsqaUBKTNV-1" source="kqgtjq5fHzS0ovIfPqEz-10" target="kqgtjq5fHzS0ovIfPqEz-0">
          <mxGeometry width="160" relative="1" as="geometry">
            <mxPoint x="210" y="630" as="sourcePoint" />
            <mxPoint x="489" y="630" as="targetPoint" />
          </mxGeometry>
        </mxCell>
        <mxCell id="kqgtjq5fHzS0ovIfPqEz-31" value="" style="endArrow=block;dashed=1;endFill=0;endSize=12;html=1;rounded=0;" edge="1" parent="WIyWlLk6GJQsqaUBKTNV-1" source="kqgtjq5fHzS0ovIfPqEz-12" target="kqgtjq5fHzS0ovIfPqEz-17">
          <mxGeometry width="160" relative="1" as="geometry">
            <mxPoint x="210" y="630" as="sourcePoint" />
            <mxPoint x="489" y="630" as="targetPoint" />
          </mxGeometry>
        </mxCell>
        <mxCell id="kqgtjq5fHzS0ovIfPqEz-32" value="" style="endArrow=block;dashed=1;endFill=0;endSize=12;html=1;rounded=0;" edge="1" parent="WIyWlLk6GJQsqaUBKTNV-1" source="kqgtjq5fHzS0ovIfPqEz-13" target="kqgtjq5fHzS0ovIfPqEz-18">
          <mxGeometry width="160" relative="1" as="geometry">
            <mxPoint x="210" y="390" as="sourcePoint" />
            <mxPoint x="290" y="390" as="targetPoint" />
          </mxGeometry>
        </mxCell>
        <mxCell id="kqgtjq5fHzS0ovIfPqEz-33" value="" style="endArrow=block;dashed=1;endFill=0;endSize=12;html=1;rounded=0;" edge="1" parent="WIyWlLk6GJQsqaUBKTNV-1" source="kqgtjq5fHzS0ovIfPqEz-23" target="kqgtjq5fHzS0ovIfPqEz-21">
          <mxGeometry width="160" relative="1" as="geometry">
            <mxPoint x="930" y="630" as="sourcePoint" />
            <mxPoint x="650" y="630" as="targetPoint" />
          </mxGeometry>
        </mxCell>
        <mxCell id="kqgtjq5fHzS0ovIfPqEz-34" value="" style="endArrow=block;dashed=1;endFill=0;endSize=12;html=1;rounded=0;" edge="1" parent="WIyWlLk6GJQsqaUBKTNV-1" source="kqgtjq5fHzS0ovIfPqEz-25" target="kqgtjq5fHzS0ovIfPqEz-22">
          <mxGeometry width="160" relative="1" as="geometry">
            <mxPoint x="930" y="390" as="sourcePoint" />
            <mxPoint x="850" y="390" as="targetPoint" />
          </mxGeometry>
        </mxCell>
        <mxCell id="kqgtjq5fHzS0ovIfPqEz-35" value="" style="endArrow=block;endSize=16;endFill=0;html=1;rounded=0;" edge="1" parent="WIyWlLk6GJQsqaUBKTNV-1" source="kqgtjq5fHzS0ovIfPqEz-17" target="kqgtjq5fHzS0ovIfPqEz-18">
          <mxGeometry width="160" relative="1" as="geometry">
            <mxPoint x="150" y="490" as="sourcePoint" />
            <mxPoint x="150" y="410" as="targetPoint" />
          </mxGeometry>
        </mxCell>
        <mxCell id="kqgtjq5fHzS0ovIfPqEz-36" value="" style="endArrow=block;endSize=16;endFill=0;html=1;rounded=0;" edge="1" parent="WIyWlLk6GJQsqaUBKTNV-1" source="kqgtjq5fHzS0ovIfPqEz-18" target="kqgtjq5fHzS0ovIfPqEz-19">
          <mxGeometry width="160" relative="1" as="geometry">
            <mxPoint x="351" y="370" as="sourcePoint" />
            <mxPoint x="351" y="290" as="targetPoint" />
          </mxGeometry>
        </mxCell>
        <mxCell id="kqgtjq5fHzS0ovIfPqEz-37" value="" style="endArrow=block;endSize=16;endFill=0;html=1;rounded=0;" edge="1" parent="WIyWlLk6GJQsqaUBKTNV-1" source="kqgtjq5fHzS0ovIfPqEz-17" target="kqgtjq5fHzS0ovIfPqEz-20">
          <mxGeometry width="160" relative="1" as="geometry">
            <mxPoint x="411" y="270" as="sourcePoint" />
            <mxPoint x="489" y="270" as="targetPoint" />
          </mxGeometry>
        </mxCell>
        <mxCell id="kqgtjq5fHzS0ovIfPqEz-38" value="" style="endArrow=block;endSize=16;endFill=0;html=1;rounded=0;" edge="1" parent="WIyWlLk6GJQsqaUBKTNV-1" source="kqgtjq5fHzS0ovIfPqEz-20" target="kqgtjq5fHzS0ovIfPqEz-19">
          <mxGeometry width="160" relative="1" as="geometry">
            <mxPoint x="411" y="390" as="sourcePoint" />
            <mxPoint x="489" y="390" as="targetPoint" />
          </mxGeometry>
        </mxCell>
        <mxCell id="kqgtjq5fHzS0ovIfPqEz-40" value="" style="endArrow=block;endSize=16;endFill=0;html=1;rounded=0;" edge="1" parent="WIyWlLk6GJQsqaUBKTNV-1" source="kqgtjq5fHzS0ovIfPqEz-22" target="kqgtjq5fHzS0ovIfPqEz-19">
          <mxGeometry width="160" relative="1" as="geometry">
            <mxPoint x="570" y="370" as="sourcePoint" />
            <mxPoint x="570" y="290" as="targetPoint" />
          </mxGeometry>
        </mxCell>
        <mxCell id="kqgtjq5fHzS0ovIfPqEz-41" value="" style="endArrow=block;endSize=16;endFill=0;html=1;rounded=0;" edge="1" parent="WIyWlLk6GJQsqaUBKTNV-1" source="kqgtjq5fHzS0ovIfPqEz-21" target="kqgtjq5fHzS0ovIfPqEz-20">
          <mxGeometry width="160" relative="1" as="geometry">
            <mxPoint x="730" y="270" as="sourcePoint" />
            <mxPoint x="650" y="270" as="targetPoint" />
          </mxGeometry>
        </mxCell>
        <mxCell id="kqgtjq5fHzS0ovIfPqEz-42" value="" style="endArrow=block;endSize=16;endFill=0;html=1;rounded=0;" edge="1" parent="WIyWlLk6GJQsqaUBKTNV-1" source="kqgtjq5fHzS0ovIfPqEz-21" target="kqgtjq5fHzS0ovIfPqEz-22">
          <mxGeometry width="160" relative="1" as="geometry">
            <mxPoint x="570" y="370" as="sourcePoint" />
            <mxPoint x="570" y="290" as="targetPoint" />
          </mxGeometry>
        </mxCell>
        <mxCell id="kqgtjq5fHzS0ovIfPqEz-43" value="" style="endArrow=block;endSize=16;endFill=0;html=1;rounded=0;" edge="1" parent="WIyWlLk6GJQsqaUBKTNV-1" source="kqgtjq5fHzS0ovIfPqEz-0" target="kqgtjq5fHzS0ovIfPqEz-20">
          <mxGeometry width="160" relative="1" as="geometry">
            <mxPoint x="790" y="370" as="sourcePoint" />
            <mxPoint x="790" y="290" as="targetPoint" />
          </mxGeometry>
        </mxCell>
      </root>
    </mxGraphModel>
  </diagram>
</mxfile>
